<svg width="24" height="24" viewBox="0 0 24 24" fill="none" xmlns="http://www.w3.org/2000/svg">
<g clip-path="url(#clip0_1302_9281)">
<path d="M23.981 12.0233C23.9915 5.40859 18.6359 0.0360059 12.019 0.0232713C5.40201 0.0105366 0.0294268 5.36247 0.0189571 11.9772C0.00848737 18.5918 5.36409 23.9644 11.981 23.9772C18.598 23.9899 23.9706 18.638 23.981 12.0233Z" fill="#3574B9"/>
<path d="M10.0591 19.4807C10.0591 19.751 9.88298 19.8456 9.61886 19.8456C8.0194 19.3161 6.62332 18.2681 5.63343 16.8539C4.64354 15.4397 4.11139 13.7329 4.11427 11.9815C4.11716 10.23 4.65493 8.52516 5.64948 7.11452C6.64404 5.70388 8.04356 4.66093 9.64476 4.13719C9.90369 4.048 10.0849 4.22909 10.0824 4.50477V5.15613C10.0843 5.2499 10.0611 5.34237 10.0153 5.42308C9.96958 5.5038 9.90311 5.56955 9.82342 5.61289C8.56395 6.08609 7.47468 6.95274 6.7038 8.09498C5.93292 9.23721 5.51783 10.5996 5.515 11.9968C5.51217 13.3939 5.92173 14.7581 6.68799 15.9038C7.45424 17.0494 8.53997 17.9208 9.79753 18.3996C9.8774 18.4427 9.94405 18.5084 9.98985 18.5891C10.0356 18.6699 10.0587 18.7625 10.0565 18.8564L10.0591 19.4807Z" fill="white"/>
<path d="M12.6898 17.2104C12.6868 17.3074 12.6494 17.3999 12.5848 17.4698C12.5203 17.5397 12.4331 17.5821 12.3403 17.5888H11.6386C11.5474 17.5824 11.4617 17.5415 11.3973 17.4738C11.333 17.4062 11.2944 17.3163 11.289 17.2212V16.1401C9.88555 15.9536 9.18642 15.132 8.92489 13.9428C8.92489 13.7617 9.01552 13.5779 9.18383 13.5779H9.97359C10.1471 13.5779 10.2325 13.6698 10.3232 13.8482C10.4966 14.4887 10.841 15.0374 11.9855 15.0401C12.8607 15.0401 13.4744 14.586 13.477 13.8563C13.4796 13.1265 13.1274 12.8508 11.9027 12.6644C10.0616 12.3941 9.18642 11.8373 9.18901 10.2859C9.18901 9.09943 10.0694 8.1859 11.2968 8.00752V6.88859C11.3023 6.7937 11.3409 6.70421 11.4053 6.63699C11.4697 6.56977 11.5554 6.52948 11.6463 6.52371H12.348C12.4389 6.52948 12.5247 6.56977 12.5891 6.63699C12.6535 6.70421 12.6921 6.7937 12.6976 6.88859V7.9859C13.7489 8.16969 14.448 8.81024 14.6215 9.81566C14.6215 9.99674 14.5335 10.1805 14.3626 10.1805H13.666C13.49 10.1805 13.4071 10.0886 13.3165 9.91026C13.143 9.2697 12.7054 8.99402 11.9156 8.99402C11.0404 8.99402 10.6002 9.44809 10.6002 10.0751C10.6002 10.7022 10.8592 11.0805 12.1746 11.267C14.013 11.5373 14.8882 12.0941 14.8856 13.6455C14.8856 14.832 14.0078 15.8347 12.6924 16.1077L12.6898 17.2104Z" fill="white"/>
<path d="M13.912 19.4969C13.912 19.7699 14.0907 19.9537 14.3496 19.8618C15.9506 19.3372 17.3501 18.2944 18.3454 16.8843C19.3408 15.4741 19.8802 13.7699 19.8857 12.0184C19.8909 8.36699 17.5319 5.25613 14.3807 4.15341C14.1166 4.15341 13.9405 4.248 13.9405 4.51828V5.15883C13.9385 5.25259 13.9617 5.34506 14.0075 5.42578C14.0532 5.5065 14.1197 5.57225 14.1994 5.61559C15.4569 6.09461 16.5424 6.96631 17.3085 8.1121C18.0745 9.2579 18.4838 10.6222 18.4806 12.0194C18.4775 13.4165 18.0622 14.7788 17.2911 15.9209C16.5199 17.063 15.4305 17.9294 14.1709 18.4023C14.0912 18.4449 14.0247 18.5101 13.9789 18.5904C13.9331 18.6708 13.9099 18.7629 13.912 18.8563V19.4969Z" fill="white"/>
</g>
<defs>
<clipPath id="clip0_1302_9281">
<rect width="24" height="24" fill="white"/>
</clipPath>
</defs>
</svg>
