<svg width="99" height="19" viewBox="0 0 99 19" fill="none" xmlns="http://www.w3.org/2000/svg">
<path d="M9.24262 0C6.57356 0 0 6.75642 0 9.49995C0 12.2435 6.57356 19 9.24262 19C11.9117 19 18.4853 12.2434 18.4853 9.49995C18.4853 6.75654 11.9118 0 9.24262 0ZM7.80231 14.9323C6.6768 14.6171 3.65074 9.17638 3.9575 8.01952C4.26425 6.86261 9.55748 3.75238 10.683 4.06766C11.8086 4.38291 14.8346 9.82352 14.5279 10.9804C14.2211 12.1374 8.92782 15.2476 7.80231 14.9323Z" fill="#836EF9"/>
<path d="M31.97 12.0196V12.0161L26.7179 2.05935C26.6146 1.86336 26.3288 1.9103 26.29 2.12964L23.6744 16.9171C23.6488 17.062 23.7571 17.1954 23.9004 17.1954H25.9241C26.0351 17.1954 26.1303 17.1138 26.1501 17.0015L27.6733 8.37325L31.7675 16.3959C31.8536 16.5645 32.0883 16.5645 32.1743 16.3959L36.2686 8.37325L37.7918 17.0015C37.8116 17.1138 37.9067 17.1954 38.0178 17.1954H40.0415C40.1848 17.1954 40.2931 17.062 40.2675 16.9171L37.6518 2.12964C37.613 1.9103 37.3273 1.86336 37.2239 2.05935L31.97 12.0196Z" fill="white"/>
<path d="M48.7766 2.33797C44.6105 2.33797 41.3469 5.66555 41.3469 9.91437C41.3469 14.1632 44.6105 17.4926 48.7766 17.4926C52.9319 17.4926 56.1873 14.1641 56.1873 9.91437C56.1873 5.66462 52.9319 2.33797 48.7766 2.33797ZM48.7766 14.9557C46.0598 14.9557 43.9313 12.7411 43.9313 9.91437C43.9313 7.08768 46.0598 4.87485 48.7766 4.87485C51.4825 4.87485 53.6029 7.08861 53.6029 9.91437C53.6029 12.7401 51.4825 14.9557 48.7766 14.9557Z" fill="white"/>
<path d="M67.6384 11.6522L58.9268 2.0144C58.7847 1.85723 58.5288 1.96055 58.5288 2.17509V16.9593C58.5288 17.0897 58.6316 17.1954 58.7585 17.1954H60.8645C60.9914 17.1954 61.0942 17.0897 61.0942 16.9593V8.15985L69.7866 17.8159C69.9285 17.9735 70.1849 17.8703 70.1849 17.6556V2.87126C70.1849 2.74088 70.0821 2.63518 69.9552 2.63518H67.8681C67.7412 2.63518 67.6384 2.74088 67.6384 2.87126V11.6522Z" fill="white"/>
<path d="M72.4182 17.1954H74.6796C74.7692 17.1954 74.8506 17.1419 74.8881 17.0583L76.5821 13.2873H81.9994L83.6553 17.0565C83.6924 17.1411 83.7744 17.1954 83.8646 17.1954H86.3183C86.4877 17.1954 86.5988 17.0134 86.5251 16.8566L79.5751 2.07329C79.4915 1.89546 79.2451 1.89546 79.1615 2.07329L72.2114 16.8566C72.1377 17.0134 72.2488 17.1954 72.4182 17.1954ZM77.6442 10.9476L79.3277 7.19231L80.9798 10.9476H77.6442Z" fill="white"/>
<path d="M92.0145 2.63518H88.5393C88.4124 2.63518 88.3096 2.74088 88.3096 2.87126V16.9593C88.3096 17.0897 88.4124 17.1954 88.5393 17.1954H92.0145C96.3229 17.1954 99 14.4058 99 9.91437C99 5.42298 96.3229 2.63518 92.0145 2.63518ZM92.0145 14.6974H90.8939V5.11373H92.0145C94.8114 5.11373 96.4157 6.86362 96.4157 9.91437C96.4157 12.954 94.8114 14.6974 92.0145 14.6974Z" fill="white"/>
</svg>
