<svg width="644" height="581" viewBox="0 0 644 581" fill="none" xmlns="http://www.w3.org/2000/svg">
<g filter="url(#filter0_b_7193_300)">
<mask id="path-1-inside-1_7193_300" fill="white">
<path fill-rule="evenodd" clip-rule="evenodd" d="M644 32C644 14.3269 629.673 0 612 0H32C14.3269 0 0 14.3269 0 32V181.707C0 199.38 17.1303 213.102 27.7644 227.218C31.6918 232.431 34 238.799 34 245.674C34 252.548 31.6918 258.916 27.7644 264.13C17.1303 278.245 0 291.967 0 309.64V549C0 566.673 14.3269 581 32 581H612C629.673 581 644 566.673 644 549V309.64C644 291.967 626.87 278.245 616.236 264.13C612.308 258.916 610 252.548 610 245.674C610 238.799 612.308 232.431 616.236 227.218C626.87 213.102 644 199.38 644 181.707V32Z"/>
</mask>
<path fill-rule="evenodd" clip-rule="evenodd" d="M644 32C644 14.3269 629.673 0 612 0H32C14.3269 0 0 14.3269 0 32V181.707C0 199.38 17.1303 213.102 27.7644 227.218C31.6918 232.431 34 238.799 34 245.674C34 252.548 31.6918 258.916 27.7644 264.13C17.1303 278.245 0 291.967 0 309.64V549C0 566.673 14.3269 581 32 581H612C629.673 581 644 566.673 644 549V309.64C644 291.967 626.87 278.245 616.236 264.13C612.308 258.916 610 252.548 610 245.674C610 238.799 612.308 232.431 616.236 227.218C626.87 213.102 644 199.38 644 181.707V32Z" fill="#090A11" fill-opacity="0.5"/>
<path fill-rule="evenodd" clip-rule="evenodd" d="M644 32C644 14.3269 629.673 0 612 0H32C14.3269 0 0 14.3269 0 32V181.707C0 199.38 17.1303 213.102 27.7644 227.218C31.6918 232.431 34 238.799 34 245.674C34 252.548 31.6918 258.916 27.7644 264.13C17.1303 278.245 0 291.967 0 309.64V549C0 566.673 14.3269 581 32 581H612C629.673 581 644 566.673 644 549V309.64C644 291.967 626.87 278.245 616.236 264.13C612.308 258.916 610 252.548 610 245.674C610 238.799 612.308 232.431 616.236 227.218C626.87 213.102 644 199.38 644 181.707V32Z" fill="url(#paint0_radial_7193_300)" fill-opacity="0.13"/>
<path fill-rule="evenodd" clip-rule="evenodd" d="M644 32C644 14.3269 629.673 0 612 0H32C14.3269 0 0 14.3269 0 32V181.707C0 199.38 17.1303 213.102 27.7644 227.218C31.6918 232.431 34 238.799 34 245.674C34 252.548 31.6918 258.916 27.7644 264.13C17.1303 278.245 0 291.967 0 309.64V549C0 566.673 14.3269 581 32 581H612C629.673 581 644 566.673 644 549V309.64C644 291.967 626.87 278.245 616.236 264.13C612.308 258.916 610 252.548 610 245.674C610 238.799 612.308 232.431 616.236 227.218C626.87 213.102 644 199.38 644 181.707V32Z" fill="url(#paint1_linear_7193_300)" fill-opacity="0.2"/>
<path d="M616.236 227.218L615.437 226.616L616.236 227.218ZM616.236 264.13L617.034 263.528L616.236 264.13ZM27.7644 264.13L26.9657 263.528L27.7644 264.13ZM32 1H612V-1H32V1ZM1 181.707V32H-1V181.707H1ZM26.9657 227.82C30.7699 232.869 33 239.028 33 245.674H35C35 238.57 32.6138 231.993 28.5631 226.616L26.9657 227.82ZM33 245.674C33 252.319 30.7699 258.478 26.9657 263.528L28.5631 264.731C32.6138 259.354 35 252.778 35 245.674H33ZM1 549V309.64H-1V549H1ZM612 580H32V582H612V580ZM643 309.64V549H645V309.64H643ZM617.034 263.528C613.23 258.478 611 252.319 611 245.674H609C609 252.778 611.386 259.354 615.437 264.731L617.034 263.528ZM611 245.674C611 239.028 613.23 232.869 617.034 227.82L615.437 226.616C611.386 231.993 609 238.57 609 245.674H611ZM643 32V181.707H645V32H643ZM617.034 227.82C619.667 224.325 622.706 220.849 625.813 217.295C628.91 213.752 632.072 210.135 634.903 206.401C640.556 198.942 645 190.875 645 181.707H643C643 190.212 638.879 197.843 633.309 205.192C630.527 208.862 627.413 212.427 624.307 215.979C621.211 219.521 618.121 223.053 615.437 226.616L617.034 227.82ZM645 309.64C645 300.473 640.556 292.406 634.903 284.947C632.072 281.212 628.91 277.595 625.813 274.052C622.706 270.499 619.667 267.022 617.034 263.528L615.437 264.731C618.121 268.295 621.211 271.827 624.307 275.369C627.413 278.921 630.527 282.486 633.309 286.155C638.879 293.505 643 301.135 643 309.64H645ZM612 582C630.225 582 645 567.225 645 549H643C643 566.121 629.121 580 612 580V582ZM26.9657 263.528C24.333 267.022 21.2936 270.499 18.1871 274.052C15.0898 277.595 11.9281 281.212 9.09745 284.947C3.44422 292.406 -1 300.473 -1 309.64H1C1 301.135 5.12092 293.505 10.6914 286.155C13.4726 282.486 16.5873 278.921 19.6928 275.369C22.7891 271.827 25.8787 268.295 28.5631 264.731L26.9657 263.528ZM-1 181.707C-1 190.875 3.44422 198.942 9.09745 206.401C11.9281 210.135 15.0898 213.752 18.1871 217.295C21.2936 220.849 24.333 224.325 26.9657 227.82L28.5631 226.616C25.8787 223.053 22.7891 219.521 19.6928 215.979C16.5873 212.427 13.4726 208.862 10.6914 205.192C5.12092 197.843 1 190.212 1 181.707H-1ZM612 1C629.121 1 643 14.8792 643 32H645C645 13.7746 630.225 -1 612 -1V1ZM-1 549C-1 567.225 13.7746 582 32 582V580C14.8792 580 1 566.121 1 549H-1ZM32 -1C13.7746 -1 -1 13.7746 -1 32H1C1 14.8792 14.8792 1 32 1V-1Z" fill="url(#paint2_linear_7193_300)" mask="url(#path-1-inside-1_7193_300)"/>
</g>
<defs>
<filter id="filter0_b_7193_300" x="-92" y="-92" width="828" height="765" filterUnits="userSpaceOnUse" color-interpolation-filters="sRGB">
<feFlood flood-opacity="0" result="BackgroundImageFix"/>
<feGaussianBlur in="BackgroundImageFix" stdDeviation="46"/>
<feComposite in2="SourceAlpha" operator="in" result="effect1_backgroundBlur_7193_300"/>
<feBlend mode="normal" in="SourceGraphic" in2="effect1_backgroundBlur_7193_300" result="shape"/>
</filter>
<radialGradient id="paint0_radial_7193_300" cx="0" cy="0" r="1" gradientUnits="userSpaceOnUse" gradientTransform="translate(322.5) rotate(90) scale(544.008 236.054)">
<stop stop-color="#C021C8"/>
<stop offset="1" stop-color="white" stop-opacity="0"/>
</radialGradient>
<linearGradient id="paint1_linear_7193_300" x1="322" y1="272.657" x2="322" y2="621" gradientUnits="userSpaceOnUse">
<stop stop-color="white" stop-opacity="0"/>
<stop offset="1" stop-color="#E0B3EF"/>
</linearGradient>
<linearGradient id="paint2_linear_7193_300" x1="322.5" y1="0" x2="322.5" y2="902.481" gradientUnits="userSpaceOnUse">
<stop stop-color="white" stop-opacity="0.2"/>
<stop offset="1" stop-color="white" stop-opacity="0.047"/>
</linearGradient>
</defs>
</svg>
